<svg xmlns="http://www.w3.org/2000/svg" version="1.1" xmlns:xlink="http://www.w3.org/1999/xlink" width="1000" height="1000"><metadata><rdf:RDF xmlns:rdf="http://www.w3.org/1999/02/22-rdf-syntax-ns#" xmlns:dc="http://purl.org/dc/elements/1.1/"><rdf:Description><dc:creator>RealFaviconGenerator</dc:creator><dc:source>https://realfavicongenerator.net</dc:source></rdf:Description></rdf:RDF></metadata><g clip-path="url(#SvgjsClipPath1040)"><rect width="1000" height="1000" fill="#ffffff"></rect><g transform="matrix(2.5,0,0,2.5,0,0)"><svg xmlns="http://www.w3.org/2000/svg" version="1.1" id="_圖層_1" viewBox="0 0 400 400" width="400" height="400"><defs>
    <style>
      .st0 {
        stroke-width: 4.17px;
      }

      .st0, .st1 {
        fill: none;
        stroke: #000;
        stroke-linecap: round;
        stroke-linejoin: round;
      }

      .st1 {
        stroke-width: 10px;
      }
    </style>
  <clipPath id="SvgjsClipPath1040"><rect width="1000" height="1000" x="0" y="0" rx="350" ry="350"></rect></clipPath></defs><polygon class="st1" points="200 33.33 344.34 116.67 344.34 283.33 200 366.67 55.66 283.33 55.66 116.67 200 33.33"></polygon><g>
    <line class="st1" x1="200" y1="150.13" x2="200" y2="366.67"></line>
    <line class="st0" x1="200" y1="33.33" x2="200" y2="107.27"></line>
    <line class="st0" x1="119.58" y1="246.45" x2="55.66" y2="283.33"></line>
    <line class="st1" x1="344.34" y1="116.67" x2="153.62" y2="226.78"></line>
    <line class="st1" x1="248.98" y1="228.28" x2="59.13" y2="118.67"></line>
    <line class="st0" x1="344.34" y1="283.33" x2="278.79" y2="245.49"></line>
    <line class="st1" x1="248.11" y1="116.67" x2="151.89" y2="283.33"></line>
    <line class="st1" x1="296.22" y1="200" x2="103.78" y2="199.99"></line>
    <line class="st1" x1="248.11" y1="283.33" x2="151.89" y2="116.67"></line>
    <polyline class="st1" points="296.22 200 344.34 283.33 248.11 283.33"></polyline>
    <polyline class="st1" points="151.89 116.67 200 33.33 248.11 116.67"></polyline>
    <polyline class="st1" points="151.89 283.33 55.66 283.33 103.78 199.99"></polyline>
    <polyline class="st1" points="248.11 283.33 200 366.67 151.89 283.33"></polyline>
    <polyline class="st1" points="248.11 116.67 344.34 116.67 296.22 200"></polyline>
    <polyline class="st1" points="103.78 199.99 55.66 116.67 151.89 116.67"></polyline>
  </g><circle cx="200" cy="107.27" r="11.41"></circle><circle cx="278.8" cy="245.49" r="11.41" transform="translate(-73.2 364.19) rotate(-60)"></circle><path d="M128.25,253.88c-6.03,6.72-16.39,4.51-19.41-3.48-1.69-4.48-.3-9.69,3.41-12.73,6.61-5.41,16.68-2.14,18.55,6.69.71,3.37-.24,6.94-2.55,9.51h0Z"></path></svg></g></g></svg>